<svg width="850" height="777" viewBox="0 0 850 777" fill="none" xmlns="http://www.w3.org/2000/svg">
<path d="M828.999 741.499C809.514 741.499 790.028 741.499 770.544 741.499C721.669 741.499 672.795 741.499 623.921 741.499C560.028 741.499 496.136 741.499 432.243 741.499C367.704 741.499 303.164 741.499 238.625 741.499C187.811 741.499 136.996 741.499 86.182 741.499C63.463 741.499 40.744 741.499 18.026 741.499C17.851 741.499 17.675 741.499 17.5 741.499C23.333 747.332 29.167 753.166 35 758.999C35 737.924 35 716.85 35 695.774C35 644.023 35 592.272 35 540.52C35 475.302 35 410.084 35 344.867C35 283.392 35 221.917 35 160.443C35 119.921 35 79.399 35 38.878C35 31.752 35 24.626 35 17.5C35 7.96 27.04 0 17.5 0C7.96 0 0 7.96 0 17.5C0 38.575 0 59.649 0 80.725C0 132.476 0 184.227 0 235.978C0 301.196 0 366.414 0 431.632C0 493.107 0 554.581 0 616.056C0 656.577 0 697.1 0 737.621C0 744.747 0 751.873 0 758.999C0 768.539 7.96 776.499 17.5 776.499C36.985 776.499 56.47 776.499 75.955 776.499C124.83 776.499 173.704 776.499 222.579 776.499C286.472 776.499 350.364 776.499 414.256 776.499C478.796 776.499 543.335 776.499 607.874 776.499C658.688 776.499 709.503 776.499 760.317 776.499C783.036 776.499 805.755 776.499 828.473 776.499C828.649 776.499 828.824 776.499 828.999 776.499C838.539 776.499 846.499 768.539 846.499 758.999C846.499 749.459 838.539 741.499 828.999 741.499Z" fill="currentColor"/>
<path d="M161.979 537.952C195.763 501.175 229.548 464.396 263.333 427.618C269.046 421.398 274.76 415.179 280.474 408.959C286.922 401.94 287.43 391.167 280.474 384.21C273.946 377.682 262.179 377.184 255.725 384.21C221.941 420.988 188.156 457.766 154.371 494.544C148.658 500.764 142.944 506.983 137.23 513.203C130.782 520.222 130.274 530.995 137.23 537.951C143.758 544.48 155.525 544.978 161.979 537.952Z" fill="currentColor"/>
<path d="M324.943 396.96C370.329 412.894 415.715 428.826 461.101 444.76C462.712 445.325 464.325 445.892 465.936 446.457C474.942 449.618 485.066 442.95 487.463 434.234C490.125 424.556 484.233 415.864 475.24 412.707C429.854 396.774 384.468 380.841 339.082 364.908C337.47 364.342 335.859 363.776 334.247 363.21C325.241 360.048 315.118 366.716 312.72 375.433C310.058 385.112 315.951 393.804 324.943 396.96Z" fill="currentColor"/>
<path d="M548.958 428.457C579.967 401.476 610.976 374.495 641.984 347.513C684.383 310.62 726.783 273.727 769.183 236.834C772.771 233.712 776.359 230.59 779.947 227.468C787.148 221.202 786.34 209.111 779.947 202.719C772.856 195.627 762.388 196.464 755.199 202.719C724.19 229.7 693.181 256.682 662.173 283.663C619.774 320.556 577.374 357.449 534.974 394.342C531.386 397.464 527.798 400.587 524.21 403.709C517.009 409.975 517.817 422.065 524.21 428.457C531.302 435.549 541.769 434.713 548.958 428.457Z" fill="currentColor"/>
<path d="M313.5 367.499C313.481 368.527 312.733 374.456 313.513 369.677C313.155 371.876 312.487 374.01 311.748 376.106C313.26 371.817 310.684 377.875 310.023 378.959C309.559 379.692 309.07 380.409 308.558 381.108C311.093 377.523 308.558 380.881 307.951 381.532C307.35 382.154 306.728 382.755 306.087 383.334C302.893 386.319 309.124 381.279 305.549 383.807C303.769 385.066 301.827 386.073 299.862 387.006C304.007 385.037 297.706 387.462 296.5 387.748C294.527 388.107 294.741 388.117 297.141 387.776C295.768 387.95 294.382 387.974 293 387.999C291.953 388.018 286.054 387.234 290.822 388.012C288.623 387.654 286.489 386.986 284.393 386.247C288.682 387.759 282.624 385.183 281.54 384.522C280.807 384.058 280.091 383.569 279.391 383.056C282.976 385.592 279.618 383.056 278.968 382.449C278.346 381.848 277.745 381.226 277.166 380.585C274.181 377.391 279.221 383.622 276.693 380.047C275.434 378.267 274.427 376.325 273.494 374.361C275.463 378.506 273.038 372.205 272.752 370.999C272.393 369.026 272.383 369.24 272.724 371.64C272.55 370.267 272.526 368.881 272.501 367.5C272.482 366.453 273.266 360.554 272.488 365.322C272.846 363.123 273.514 360.989 274.253 358.893C272.741 363.182 275.317 357.124 275.978 356.04C276.442 355.307 276.931 354.59 277.443 353.891C274.908 357.476 277.443 354.118 278.05 353.467C278.651 352.845 279.273 352.244 279.914 351.665C283.108 348.68 276.877 353.72 280.452 351.192C282.232 349.933 284.174 348.926 286.139 347.993C281.994 349.962 288.295 347.537 289.501 347.251C291.474 346.892 291.26 346.882 288.86 347.223C290.233 347.049 291.619 347.025 293.001 347C294.048 346.981 299.947 347.765 295.179 346.987C297.378 347.345 299.512 348.013 301.608 348.752C297.319 347.24 303.377 349.816 304.461 350.477C305.194 350.941 305.91 351.43 306.61 351.943C303.025 349.408 306.383 351.943 307.033 352.55C307.655 353.151 308.256 353.773 308.835 354.415C311.82 357.609 306.78 351.378 309.308 354.953C310.567 356.733 311.574 358.675 312.507 360.639C310.538 356.494 312.963 362.795 313.249 364.001C313.608 365.974 313.618 365.76 313.277 363.36C313.45 364.731 313.475 366.118 313.5 367.499C313.671 377.036 321.331 384.999 331 384.999C340.41 384.999 348.671 377.039 348.5 367.499C347.955 337.188 324.415 313.647 294.393 312.024C279.836 311.237 265.916 317.532 255.165 326.915C244.212 336.475 238.873 350.603 237.599 364.726C236.279 379.364 242.546 393.288 251.562 404.356C260.795 415.691 274.822 421 288.858 422.776C303.219 424.592 317.901 418.674 328.85 409.755C340.138 400.56 346.308 387.194 348.105 372.991C348.337 371.158 348.466 369.346 348.499 367.498C348.67 357.958 340.409 349.998 330.999 349.998C321.33 349.999 313.671 357.962 313.5 367.499Z" fill="currentColor"/>
<path d="M143.5 554.499C143.481 555.526 142.733 561.456 143.513 556.678C143.155 558.876 142.487 561.011 141.748 563.107C143.26 558.818 140.684 564.876 140.023 565.96C139.559 566.693 139.07 567.409 138.558 568.109C141.093 564.524 138.558 567.882 137.951 568.533C137.35 569.155 136.728 569.756 136.087 570.335C132.893 573.32 139.124 568.28 135.549 570.808C133.769 572.067 131.827 573.074 129.862 574.007C134.007 572.038 127.706 574.463 126.5 574.749C124.527 575.107 124.741 575.117 127.141 574.777C125.768 574.951 124.382 574.975 123 575C121.953 575.019 116.054 574.235 120.822 575.013C118.623 574.655 116.489 573.987 114.393 573.248C118.682 574.76 112.624 572.184 111.54 571.522C110.807 571.058 110.091 570.57 109.391 570.057C112.976 572.592 109.618 570.057 108.968 569.45C108.346 568.848 107.745 568.227 107.166 567.586C104.181 564.392 109.221 570.622 106.693 567.048C105.434 565.268 104.427 563.326 103.494 561.361C105.463 565.506 103.038 559.206 102.752 558C102.393 556.026 102.383 556.24 102.724 558.641C102.55 557.268 102.526 555.881 102.501 554.5C102.482 553.453 103.266 547.554 102.488 552.321C102.846 550.123 103.514 547.988 104.253 545.892C102.741 550.181 105.317 544.123 105.978 543.039C106.442 542.306 106.931 541.59 107.443 540.89C104.908 544.475 107.443 541.117 108.05 540.466C108.651 539.844 109.273 539.243 109.914 538.664C113.108 535.679 106.877 540.719 110.452 538.191C112.232 536.932 114.174 535.925 116.139 534.992C111.994 536.961 118.295 534.536 119.501 534.25C121.474 533.892 121.26 533.882 118.86 534.222C120.233 534.048 121.619 534.024 123.001 533.999C124.048 533.98 129.947 534.764 125.179 533.986C127.378 534.344 129.512 535.012 131.608 535.751C127.319 534.239 133.377 536.815 134.461 537.477C135.194 537.941 135.91 538.429 136.61 538.942C133.025 536.407 136.383 538.942 137.033 539.549C137.655 540.151 138.256 540.772 138.835 541.413C141.82 544.607 136.78 538.377 139.308 541.951C140.567 543.731 141.574 545.673 142.507 547.638C140.538 543.493 142.963 549.793 143.249 550.999C143.608 552.973 143.618 552.759 143.277 550.358C143.45 551.731 143.475 553.118 143.5 554.499C143.671 564.035 151.331 571.999 161 571.999C170.41 571.999 178.671 564.039 178.5 554.499C177.955 524.187 154.415 500.646 124.393 499.024C109.836 498.237 95.916 504.532 85.165 513.915C74.212 523.475 68.873 537.603 67.599 551.726C66.279 566.364 72.546 580.288 81.562 591.357C90.795 602.692 104.822 608.001 118.858 609.777C133.219 611.593 147.901 605.675 158.85 596.756C170.138 587.561 176.308 574.195 178.105 559.992C178.337 558.158 178.467 556.347 178.5 554.499C178.671 544.959 170.409 536.999 160.999 536.999C151.33 536.999 143.671 544.962 143.5 554.499Z" fill="currentColor"/>
<path d="M527.499 440.499C527.48 441.526 526.732 447.456 527.512 442.678C527.154 444.876 526.486 447.011 525.747 449.107C527.259 444.818 524.683 450.876 524.021 451.96C523.557 452.693 523.069 453.409 522.556 454.109C525.091 450.524 522.556 453.882 521.949 454.533C521.347 455.155 520.726 455.756 520.085 456.335C516.891 459.32 523.121 454.28 519.547 456.808C517.767 458.067 515.825 459.074 513.86 460.007C518.005 458.038 511.705 460.463 510.499 460.749C508.525 461.107 508.739 461.117 511.14 460.777C509.767 460.951 508.38 460.975 506.999 461C505.952 461.019 500.054 460.235 504.821 461.013C502.622 460.655 500.487 459.987 498.391 459.248C502.68 460.76 496.622 458.184 495.538 457.522C494.805 457.058 494.088 456.57 493.389 456.057C496.974 458.592 493.616 456.057 492.965 455.45C492.343 454.848 491.742 454.227 491.163 453.586C488.178 450.392 493.218 456.622 490.69 453.048C489.431 451.268 488.424 449.326 487.491 447.361C489.461 451.506 487.035 445.206 486.749 444C486.391 442.026 486.381 442.24 486.721 444.641C486.547 443.268 486.523 441.881 486.498 440.5C486.479 439.453 487.263 433.555 486.485 438.321C486.843 436.123 487.511 433.988 488.25 431.892C486.738 436.181 489.314 430.123 489.976 429.039C490.44 428.306 490.928 427.59 491.441 426.89C488.906 430.475 491.441 427.117 492.048 426.466C492.65 425.844 493.271 425.243 493.912 424.664C497.106 421.679 490.876 426.719 494.45 424.191C496.23 422.932 498.172 421.925 500.137 420.992C495.992 422.961 502.292 420.536 503.498 420.25C505.472 419.892 505.258 419.882 502.857 420.222C504.23 420.048 505.617 420.024 506.998 419.999C508.045 419.98 513.943 420.764 509.176 419.986C511.375 420.344 513.51 421.012 515.606 421.751C511.317 420.239 517.375 422.815 518.459 423.477C519.192 423.941 519.909 424.429 520.608 424.942C517.023 422.407 520.381 424.942 521.032 425.549C521.654 426.151 522.255 426.772 522.834 427.413C525.819 430.607 520.779 424.377 523.307 427.951C524.566 429.731 525.573 431.673 526.506 433.638C524.536 429.493 526.962 435.793 527.248 436.999C527.606 438.973 527.616 438.759 527.276 436.358C527.45 437.731 527.475 439.118 527.499 440.499C527.671 450.035 535.329 457.999 544.999 457.999C554.409 457.999 562.671 450.039 562.499 440.499C561.954 410.187 538.414 386.647 508.392 385.024C493.835 384.237 479.915 390.532 469.165 399.915C458.211 409.475 452.873 423.603 451.599 437.726C450.279 452.364 456.546 466.289 465.562 477.357C474.796 488.692 488.823 494.001 502.859 495.777C517.22 497.593 531.902 491.675 542.85 482.756C554.138 473.561 560.308 460.195 562.105 445.992C562.337 444.158 562.466 442.347 562.5 440.499C562.672 430.959 554.41 422.999 545 422.999C535.329 422.999 527.671 430.962 527.499 440.499Z" fill="currentColor"/>
<path d="M814.499 188.499C814.48 189.526 813.732 195.456 814.512 190.677C814.154 192.876 813.486 195.01 812.747 197.106C814.259 192.817 811.683 198.875 811.021 199.959C810.557 200.692 810.069 201.409 809.556 202.108C812.091 198.523 809.556 201.881 808.949 202.532C808.347 203.154 807.726 203.755 807.085 204.334C803.891 207.318 810.121 202.279 806.547 204.807C804.767 206.066 802.825 207.073 800.86 208.006C805.005 206.037 798.705 208.462 797.499 208.748C795.525 209.107 795.739 209.117 798.14 208.776C796.767 208.95 795.38 208.974 793.999 208.999C792.952 209.018 787.054 208.234 791.821 209.012C789.622 208.654 787.487 207.986 785.391 207.247C789.68 208.759 783.622 206.183 782.538 205.522C781.805 205.058 781.088 204.569 780.389 204.056C783.974 206.591 780.616 204.056 779.965 203.449C779.343 202.848 778.742 202.226 778.163 201.584C775.178 198.39 780.218 204.621 777.69 201.046C776.431 199.266 775.424 197.324 774.491 195.36C776.461 199.505 774.035 193.204 773.749 191.998C773.391 190.025 773.381 190.239 773.721 192.639C773.547 191.266 773.523 189.88 773.498 188.498C773.479 187.451 774.263 181.552 773.485 186.32C773.843 184.121 774.511 181.987 775.25 179.891C773.738 184.18 776.314 178.122 776.976 177.038C777.44 176.305 777.928 175.588 778.441 174.889C775.906 178.474 778.441 175.116 779.048 174.465C779.65 173.843 780.271 173.242 780.912 172.663C784.106 169.679 777.876 174.718 781.45 172.19C783.23 170.931 785.172 169.924 787.137 168.991C782.992 170.96 789.292 168.535 790.498 168.249C792.472 167.89 792.258 167.88 789.857 168.221C791.23 168.047 792.617 168.023 793.998 167.998C795.045 167.979 800.943 168.763 796.176 167.985C798.375 168.343 800.51 169.011 802.606 169.75C798.317 168.238 804.375 170.814 805.459 171.475C806.192 171.939 806.909 172.428 807.608 172.941C804.023 170.406 807.381 172.941 808.032 173.548C808.654 174.149 809.255 174.771 809.834 175.413C812.819 178.607 807.779 172.376 810.307 175.951C811.566 177.731 812.573 179.673 813.506 181.637C811.536 177.492 813.962 183.793 814.248 184.999C814.606 186.972 814.616 186.758 814.276 184.358C814.45 185.731 814.475 187.118 814.499 188.499C814.671 198.036 822.329 205.999 831.999 205.999C841.409 205.999 849.671 198.039 849.499 188.499C848.954 158.188 825.414 134.647 795.392 133.024C780.835 132.237 766.915 138.532 756.165 147.915C745.211 157.475 739.873 171.603 738.599 185.726C737.279 200.364 743.546 214.288 752.562 225.356C761.796 236.691 775.823 242 789.859 243.776C804.22 245.593 818.902 239.675 829.85 230.756C841.138 221.56 847.308 208.195 849.105 193.992C849.337 192.158 849.466 190.347 849.5 188.499C849.672 178.959 841.41 170.999 832 170.999C822.329 170.999 814.671 178.962 814.499 188.499Z" fill="currentColor"/>
</svg>
