<?xml version="1.0" standalone="no"?>
<!DOCTYPE svg PUBLIC "-//W3C//DTD SVG 20010904//EN"
 "http://www.w3.org/TR/2001/REC-SVG-20010904/DTD/svg10.dtd">
<svg version="1.0" xmlns="http://www.w3.org/2000/svg"
 width="118.000000pt" height="122.000000pt" viewBox="0 0 118.000000 122.000000"
 preserveAspectRatio="xMidYMid meet">

<g transform="translate(0.000000,122.000000) scale(0.100000,-0.100000)"
fill="#000000" stroke="none">
<path d="M335 1139 c-11 -16 -2 -20 92 -45 47 -13 90 -27 94 -31 13 -13 -238
-86 -269 -79 -15 3 -75 21 -134 40 -59 18 -109 31 -112 28 -10 -10 -6 -340 4
-366 5 -14 15 -26 22 -26 7 0 24 -10 38 -21 l25 -21 -43 6 -42 6 2 -181 3
-180 125 -60 c90 -42 133 -58 153 -54 19 3 27 0 27 -10 0 -10 52 -40 138 -81
l137 -65 138 67 c75 38 137 74 137 81 0 9 8 11 24 7 17 -4 57 12 143 55 l120
60 7 47 c3 26 6 107 6 181 l0 133 -40 -6 c-52 -8 -53 9 -1 29 33 13 39 21 44
54 8 48 9 338 1 345 -3 4 -58 -11 -122 -33 -64 -21 -123 -39 -132 -39 -8 0
-72 16 -141 37 -91 26 -126 40 -122 50 3 7 14 13 25 13 42 0 158 42 158 57 0
8 -6 13 -12 10 -7 -2 -63 -19 -124 -37 l-112 -33 -120 37 c-137 41 -129 39
-137 25z m335 -114 c8 -7 50 -23 93 -36 42 -12 77 -25 77 -29 0 -3 -25 -14
-56 -24 -43 -14 -58 -15 -70 -6 -15 13 -174 23 -174 11 0 -4 -10 -7 -22 -8
-11 -1 -24 -7 -27 -12 -4 -6 -34 -1 -81 13 -41 13 -68 26 -60 29 8 3 47 15 85
27 39 12 75 28 80 35 6 6 16 14 22 16 25 8 118 -3 133 -16z m-369 -258 c-8 -8
-11 -5 -11 9 0 27 14 41 18 19 2 -9 -1 -22 -7 -28z m597 14 c3 -16 -1 -22 -10
-19 -7 3 -15 15 -16 27 -3 16 1 22 10 19 7 -3 15 -15 16 -27z m-548 -241 c0
-5 -6 -10 -14 -10 -8 0 -23 -3 -33 -6 -16 -5 -16 -4 1 10 22 18 46 21 46 6z
m526 0 c15 -6 24 -13 21 -16 -8 -9 -67 6 -67 17 0 12 12 11 46 -1z m-466 -19
c0 -11 -50 -24 -58 -16 -8 8 19 25 41 25 9 0 17 -4 17 -9z m409 -7 c2 -2 2 -7
-2 -10 -10 -10 -58 6 -52 17 6 8 42 4 54 -7z"/>
</g>
</svg>
