<?xml version="1.0" standalone="no"?>
<!DOCTYPE svg PUBLIC "-//W3C//DTD SVG 20010904//EN"
 "http://www.w3.org/TR/2001/REC-SVG-20010904/DTD/svg10.dtd">
<svg version="1.0" xmlns="http://www.w3.org/2000/svg"
 width="100.000000pt" height="97.000000pt" viewBox="0 0 100.000000 97.000000"
 preserveAspectRatio="xMidYMid meet">

<g transform="translate(0.000000,97.000000) scale(0.100000,-0.100000)"
fill="#000000" stroke="none">
<path d="M536 903 l-59 -36 -81 19 c-91 21 -90 21 -94 0 -2 -10 14 -20 52 -32
31 -10 56 -21 56 -25 0 -9 -103 -34 -194 -47 -63 -10 -75 -9 -134 14 -37 14
-69 21 -74 16 -5 -5 -5 -66 -1 -138 l8 -129 55 -27 c30 -15 61 -28 68 -28 23
0 12 -20 -16 -25 -57 -13 -62 -13 -57 -5 7 12 -27 22 -37 12 -5 -5 -6 -58 -2
-121 l7 -111 93 -50 c76 -41 98 -49 113 -40 27 14 31 13 31 -9 0 -14 29 -35
114 -80 l114 -61 113 63 c86 47 115 68 117 84 3 19 7 21 27 13 20 -8 40 0 112
39 101 56 101 57 102 208 l1 83 -32 14 -33 13 37 18 c41 20 41 22 54 202 5 83
4 92 -13 96 -125 37 -219 58 -240 52 -19 -4 -29 -1 -39 13 -7 11 -30 23 -49
26 -20 4 -42 9 -48 11 -7 2 -39 -13 -71 -32z m-31 -113 c-14 -23 -89 -51 -147
-55 l-63 -5 100 34 c111 39 119 40 110 26z m250 -578 c-3 -3 -11 0 -18 7 -9
10 -8 11 6 5 10 -3 15 -9 12 -12z m-495 -2 c-8 -5 -19 -10 -25 -10 -5 0 -3 5
5 10 8 5 20 10 25 10 6 0 3 -5 -5 -10z"/>
</g>
</svg>
